<mxfile host="app.diagrams.net" modified="2022-07-25T05:58:55.070Z" agent="5.0 (Macintosh; Intel Mac OS X 10_15_7) AppleWebKit/537.36 (KHTML, like Gecko) Chrome/103.0.0.0 Safari/537.36" etag="mTM8-F31jsvngvNFop1L" version="20.2.0" type="github">
  <diagram name="Page-1" id="7e0a89b8-554c-2b80-1dc8-d5c74ca68de4">
    <mxGraphModel dx="946" dy="589" grid="1" gridSize="10" guides="1" tooltips="1" connect="1" arrows="1" fold="1" page="1" pageScale="1" pageWidth="1100" pageHeight="850" background="none" math="0" shadow="0">
      <root>
        <mxCell id="0" />
        <mxCell id="1" parent="0" />
        <mxCell id="EvjPQXGIe_waukP_P0-4-3" style="edgeStyle=orthogonalEdgeStyle;rounded=0;orthogonalLoop=1;jettySize=auto;html=1;exitX=1;exitY=0.12;exitDx=0;exitDy=0;entryX=0.2;entryY=0.194;entryDx=0;entryDy=0;entryPerimeter=0;" edge="1" parent="1" source="EvjPQXGIe_waukP_P0-4-1" target="EvjPQXGIe_waukP_P0-4-2">
          <mxGeometry relative="1" as="geometry" />
        </mxCell>
        <mxCell id="EvjPQXGIe_waukP_P0-4-4" style="edgeStyle=orthogonalEdgeStyle;rounded=0;orthogonalLoop=1;jettySize=auto;html=1;exitX=1;exitY=0.88;exitDx=0;exitDy=0;entryX=0.767;entryY=0.258;entryDx=0;entryDy=0;entryPerimeter=0;" edge="1" parent="1" source="EvjPQXGIe_waukP_P0-4-1" target="EvjPQXGIe_waukP_P0-4-2">
          <mxGeometry relative="1" as="geometry">
            <mxPoint x="330" y="360" as="targetPoint" />
          </mxGeometry>
        </mxCell>
        <mxCell id="EvjPQXGIe_waukP_P0-4-1" value="" style="shape=mxgraph.electrical.electro-mechanical.twoWaySwitch;aspect=fixed;elSwitchState=2;" vertex="1" parent="1">
          <mxGeometry x="150" y="360" width="75" height="26" as="geometry" />
        </mxCell>
        <mxCell id="EvjPQXGIe_waukP_P0-4-2" value="" style="shape=mxgraph.electrical.electro-mechanical.pressureActuatedSwitch;aspect=fixed;elSwitchState=on;" vertex="1" parent="1">
          <mxGeometry x="474.5" y="490" width="75" height="31" as="geometry" />
        </mxCell>
      </root>
    </mxGraphModel>
  </diagram>
</mxfile>
